name rise49.25peak52.1432fall72.8391.mot
datacolumns 19
datarows 15
range 15.77327100000000 15.79660900000000
endheader
time	ground_force1_vx	ground_force1_vy	ground_force1_vz	ground_force1_px	ground_force1_py	ground_force1_pz	ground_force2_vx	ground_force2_vy	ground_force2_vz	ground_force2_px	ground_force2_py	ground_force2_pz	ground_torque1_x	ground_torque1_y	ground_torque1_z	ground_torque2_x	ground_torque2_y	ground_torque2_z	
15.77327100000000	63.86301000000000	793.68719499999997	53.31497300000000	0.32071000000000	0.00000000000000	0.09277900000000	0.00000000000000	0.00000000000000	0.00000000000000	0.00000000000000	0.00000000000000	0.00000000000000	0.00000000000000	20.88512100000000	0.00000000000000	0.00000000000000	0.00000000000000	0.00000000000000	
15.77493800000000	63.27058100000000	796.28498500000001	53.43765700000000	0.32008700000000	0.00000000000000	0.09271900000000	0.00000000000000	0.00000000000000	0.00000000000000	0.00000000000000	0.00000000000000	0.00000000000000	0.00000000000000	20.97501000000000	0.00000000000000	0.00000000000000	0.00000000000000	0.00000000000000	
15.77660900000000	62.67425200000000	798.70997699999998	53.55422800000000	0.31948700000000	0.00000000000000	0.09265600000000	0.00000000000000	0.00000000000000	0.00000000000000	0.00000000000000	0.00000000000000	0.00000000000000	0.00000000000000	21.06471900000000	0.00000000000000	0.00000000000000	0.00000000000000	0.00000000000000	
15.77826800000000	62.07452200000000	800.96044400000005	53.66421100000000	0.31890800000000	0.00000000000000	0.09259100000000	0.00000000000000	0.00000000000000	0.00000000000000	0.00000000000000	0.00000000000000	0.00000000000000	0.00000000000000	21.15386700000000	0.00000000000000	0.00000000000000	0.00000000000000	0.00000000000000	
15.77994000000000	61.47184400000000	803.03496199999995	53.76709300000000	0.31834700000000	0.00000000000000	0.09252500000000	0.00000000000000	0.00000000000000	0.00000000000000	0.00000000000000	0.00000000000000	0.00000000000000	0.00000000000000	21.24204400000000	0.00000000000000	0.00000000000000	0.00000000000000	0.00000000000000	
15.78160700000000	60.86663400000000	804.93242799999996	53.86233500000000	0.31780400000000	0.00000000000000	0.09245600000000	0.00000000000000	0.00000000000000	0.00000000000000	0.00000000000000	0.00000000000000	0.00000000000000	0.00000000000000	21.32881600000000	0.00000000000000	0.00000000000000	0.00000000000000	0.00000000000000	
15.78327300000000	60.25927000000000	806.65206300000000	53.94937400000000	0.31727600000000	0.00000000000000	0.09238600000000	0.00000000000000	0.00000000000000	0.00000000000000	0.00000000000000	0.00000000000000	0.00000000000000	0.00000000000000	21.41372900000000	0.00000000000000	0.00000000000000	0.00000000000000	0.00000000000000	
15.78494200000000	59.65009700000000	808.19342400000005	54.02763000000000	0.31676100000000	0.00000000000000	0.09231500000000	0.00000000000000	0.00000000000000	0.00000000000000	0.00000000000000	0.00000000000000	0.00000000000000	0.00000000000000	21.49631300000000	0.00000000000000	0.00000000000000	0.00000000000000	0.00000000000000	
15.78660400000000	59.03942700000000	809.55640900000003	54.09651300000000	0.31625700000000	0.00000000000000	0.09224100000000	0.00000000000000	0.00000000000000	0.00000000000000	0.00000000000000	0.00000000000000	0.00000000000000	0.00000000000000	21.57608400000000	0.00000000000000	0.00000000000000	0.00000000000000	0.00000000000000	
15.78827100000000	58.42754600000000	810.74126100000001	54.15542600000000	0.31576200000000	0.00000000000000	0.09216600000000	0.00000000000000	0.00000000000000	0.00000000000000	0.00000000000000	0.00000000000000	0.00000000000000	0.00000000000000	21.65255000000000	0.00000000000000	0.00000000000000	0.00000000000000	0.00000000000000	
15.78993900000000	57.81471300000000	811.74857499999996	54.20377700000000	0.31527300000000	0.00000000000000	0.09209000000000	0.00000000000000	0.00000000000000	0.00000000000000	0.00000000000000	0.00000000000000	0.00000000000000	0.00000000000000	21.72521400000000	0.00000000000000	0.00000000000000	0.00000000000000	0.00000000000000	
15.79160400000000	57.20116600000000	812.57929400000000	54.24097600000000	0.31478900000000	0.00000000000000	0.09201200000000	0.00000000000000	0.00000000000000	0.00000000000000	0.00000000000000	0.00000000000000	0.00000000000000	0.00000000000000	21.79357500000000	0.00000000000000	0.00000000000000	0.00000000000000	0.00000000000000	
15.79327400000000	56.58712600000000	813.23471600000005	54.26644900000000	0.31430600000000	0.00000000000000	0.09193300000000	0.00000000000000	0.00000000000000	0.00000000000000	0.00000000000000	0.00000000000000	0.00000000000000	0.00000000000000	21.85713800000000	0.00000000000000	0.00000000000000	0.00000000000000	0.00000000000000	
15.79493500000000	55.97279600000000	813.71648700000003	54.27963800000000	0.31382400000000	0.00000000000000	0.09185200000000	0.00000000000000	0.00000000000000	0.00000000000000	0.00000000000000	0.00000000000000	0.00000000000000	0.00000000000000	21.91541200000000	0.00000000000000	0.00000000000000	0.00000000000000	0.00000000000000	
15.79660900000000	55.35836700000000	814.02660000000003	54.28001100000000	0.31333800000000	0.00000000000000	0.09177000000000	0.00000000000000	0.00000000000000	0.00000000000000	0.00000000000000	0.00000000000000	0.00000000000000	0.00000000000000	21.96791800000000	0.00000000000000	0.00000000000000	0.00000000000000	0.00000000000000	
